<!--?xml version="1.0" standalone="no"?-->
              <svg id="sw-js-blob-svg" viewBox="0 0 100 100" xmlns="http://www.w3.org/2000/svg" version="1.1">
                    <defs> 
                        <linearGradient id="sw-gradient" x1="0" x2="1" y1="1" y2="0">
                            <stop id="stop1" stop-color="rgba(248, 117, 55, 1)" offset="0%"></stop>
                            <stop id="stop2" stop-color="rgba(251, 168, 31, 1)" offset="100%"></stop>
                        </linearGradient>
                    </defs>
                <path fill="url(#sw-gradient)" d="M19.1,-27.2C24,-22.6,27,-16.2,31.3,-8.8C35.6,-1.4,41.3,6.9,41.1,15.1C40.8,23.2,34.6,31.1,26.7,34.9C18.9,38.8,9.4,38.5,0.3,38.1C-8.8,37.7,-17.7,37.1,-25.2,33.2C-32.7,29.2,-38.9,21.9,-40.9,13.8C-43,5.6,-40.8,-3.5,-37.1,-11.3C-33.5,-19,-28.4,-25.6,-22,-29.6C-15.5,-33.7,-7.8,-35.4,-0.4,-34.9C7,-34.4,14.1,-31.7,19.1,-27.2Z" width="100%" height="100%" transform="translate(50 50)" stroke-width="0" style="transition: all 0.3s ease 0s;"></path>
              </svg>