<svg viewBox="0 0 11 13" xmlns="http://www.w3.org/2000/svg"><path d="m9.02510228 12.6901116h-7.81481683c-.66845645 0-1.21028545-.5417831-1.21028545-1.2101872v-10.26968481c0-.66841059.541829-1.21023959 1.21028545-1.21023959h7.81481683c.6683582 0 1.21039032.541829 1.21039032 1.21023959v10.26968481c0 .6684041-.54203212 1.2101872-1.21039032 1.2101872zm-2.61066932-1.7460805v-5.03963922s.32777828-1.20598768-4.03777024.49336096c-.00798628.02154788-.00798628-4.66016308-.00798628-4.66016308l1.4263868-.0087528v2.999619s3.99385552-1.57302912 3.99385552 1.19293704v5.0226512h-1.3744858zm.8127992-7.39977252h-1.51299112c.54459372-.66584896 1.03759436-1.80668192 1.03759436-1.80668192h1.56437456s-.26779272.74344496-1.0889778 1.80668192zm-4.83265762 7.39101972v-2.86991886l1.43508719 1.4350872z" fill="#6762a6" fill-rule="evenodd"/></svg>